{"title":"Doctor Who 2005 S08E01 Deep Breath 720p HDTV  X265","uid":11049342,"size":631692578,"categoryP":"video","categoryS":"hd___tv_shows","magnet":"?xt=urn:btih:93fc0b3e95b8fd12f638700d8fc37ef428278750&amp;dn=Doctor+Who+2005+S08E01+Deep+Breath+720p+HDTV++X265&amp;tr=udp%3A%2F%2Ftracker.openbittorrent.com%3A80&amp;tr=udp%3A%2F%2Fopen.demonii.com%3A1337&amp;tr=udp%3A%2F%2Ftracker.coppersurfer.tk%3A6969&amp;tr=udp%3A%2F%2Fexodus.desync.com%3A6969","seeders":0,"leechers":0,"uploader":"atm50","files":-1,"time":1410997857,"description":"When the newly regenerated doctor arrives in Victorian London, he finds a dinosaur rampant in the Thames and a spate of deadly spontaneous combustions.\n\nSource: Doctor Who 2005 8x01 Deep Breath 720p HDTV x264-FoV [eztv]\n\nFormat                         : Matroska\nFile size                      : 602 MiB\nDuration                       : 1h 15mn\nOverall bit rate               : 1 109 Kbps\n\nVideo\n\nFormat                         : HEVC [X265]\nBit rate                       : 831 Kbps\nWidth                          : 1280 pixels\nHeight                         : 720 pixels\nDisplay aspect ratio           : 16:9\nFrame rate                     : 25.000 fps\nStream size                    : 451 MiB (75%)\n\nAudio\n\nFormat                         : AC-3\nBit rate                       : 256 Kbps\nChannel(s)                     : 6 channels (5.1)\nSampling rate                  : 48.0 KHz\nBit depth                      : 16 bits\nCompression mode               : Lossy\nStream size                    : 139 MiB (23%)\n\nSubtitles: English by GoldenBeard from subscene","torrent":{"xt":"urn:btih:93fc0b3e95b8fd12f638700d8fc37ef428278750","amp;dn":"Doctor+Who+2005+S08E01+Deep+Breath+720p+HDTV++X265","amp;tr":["udp%3A%2F%2Ftracker.openbittorrent.com%3A80","udp%3A%2F%2Fopen.demonii.com%3A1337","udp%3A%2F%2Ftracker.coppersurfer.tk%3A6969","udp%3A%2F%2Fexodus.desync.com%3A6969"],"infoHash":"93fc0b3e95b8fd12f638700d8fc37ef428278750","infoHashBuffer":{"type":"Buffer","data":[147,252,11,62,149,184,253,18,246,56,112,13,143,195,126,244,40,39,135,80]},"announce":[],"urlList":[]}}